<svg id="visual" viewBox="0 0 900 600" width="900" height="600" xmlns="http://www.w3.org/2000/svg" xmlns:xlink="http://www.w3.org/1999/xlink" version="1.1"><rect x="0" y="0" width="900" height="600" fill="#FFFFFF"></rect><path d="M0 378L21.5 380C43 382 86 386 128.8 396.3C171.7 406.7 214.3 423.3 257.2 421.2C300 419 343 398 385.8 383C428.7 368 471.3 359 514.2 367.5C557 376 600 402 642.8 403.5C685.7 405 728.3 382 771.2 372C814 362 857 365 878.5 366.5L900 368L900 601L878.5 601C857 601 814 601 771.2 601C728.3 601 685.7 601 642.8 601C600 601 557 601 514.2 601C471.3 601 428.7 601 385.8 601C343 601 300 601 257.2 601C214.3 601 171.7 601 128.8 601C86 601 43 601 21.5 601L0 601Z" fill="#beece2"></path><path d="M0 459L21.5 458C43 457 86 455 128.8 456.8C171.7 458.7 214.3 464.3 257.2 466.5C300 468.7 343 467.3 385.8 457.5C428.7 447.7 471.3 429.3 514.2 424.8C557 420.3 600 429.7 642.8 427C685.7 424.3 728.3 409.7 771.2 412.7C814 415.7 857 436.3 878.5 446.7L900 457L900 601L878.5 601C857 601 814 601 771.2 601C728.3 601 685.7 601 642.8 601C600 601 557 601 514.2 601C471.3 601 428.7 601 385.8 601C343 601 300 601 257.2 601C214.3 601 171.7 601 128.8 601C86 601 43 601 21.5 601L0 601Z" fill="#9fd5d8"></path><path d="M0 482L21.5 483.5C43 485 86 488 128.8 480.8C171.7 473.7 214.3 456.3 257.2 458.8C300 461.3 343 483.7 385.8 484.5C428.7 485.3 471.3 464.7 514.2 464.2C557 463.7 600 483.3 642.8 486.8C685.7 490.3 728.3 477.7 771.2 468.5C814 459.3 857 453.7 878.5 450.8L900 448L900 601L878.5 601C857 601 814 601 771.2 601C728.3 601 685.7 601 642.8 601C600 601 557 601 514.2 601C471.3 601 428.7 601 385.8 601C343 601 300 601 257.2 601C214.3 601 171.7 601 128.8 601C86 601 43 601 21.5 601L0 601Z" fill="#87bdcd"></path><path d="M0 525L21.5 524.8C43 524.7 86 524.3 128.8 519.2C171.7 514 214.3 504 257.2 505C300 506 343 518 385.8 516C428.7 514 471.3 498 514.2 496.8C557 495.7 600 509.3 642.8 512.2C685.7 515 728.3 507 771.2 506.7C814 506.3 857 513.7 878.5 517.3L900 521L900 601L878.5 601C857 601 814 601 771.2 601C728.3 601 685.7 601 642.8 601C600 601 557 601 514.2 601C471.3 601 428.7 601 385.8 601C343 601 300 601 257.2 601C214.3 601 171.7 601 128.8 601C86 601 43 601 21.5 601L0 601Z" fill="#78a4c0"></path><path d="M0 571L21.5 565.5C43 560 86 549 128.8 546.3C171.7 543.7 214.3 549.3 257.2 553.2C300 557 343 559 385.8 560C428.7 561 471.3 561 514.2 557.3C557 553.7 600 546.3 642.8 547.3C685.7 548.3 728.3 557.7 771.2 563.3C814 569 857 571 878.5 572L900 573L900 601L878.5 601C857 601 814 601 771.2 601C728.3 601 685.7 601 642.8 601C600 601 557 601 514.2 601C471.3 601 428.7 601 385.8 601C343 601 300 601 257.2 601C214.3 601 171.7 601 128.8 601C86 601 43 601 21.5 601L0 601Z" fill="#728aae"></path></svg>